<?xml version="1.0" standalone="no"?>
<!DOCTYPE svg PUBLIC "-//W3C//DTD SVG 20010904//EN"
 "http://www.w3.org/TR/2001/REC-SVG-20010904/DTD/svg10.dtd">
<svg version="1.0" xmlns="http://www.w3.org/2000/svg"
 width="1025.000000pt" height="1025.000000pt" viewBox="0 0 1025.000000 1025.000000"
 preserveAspectRatio="xMidYMid meet">

<g transform="translate(0.000000,1025.000000) scale(0.100000,-0.100000)"
fill="#000000" stroke="none">
<path d="M6516 9441 c-10 -15 11 -59 33 -70 26 -15 67 1 76 30 9 26 -15 46
-28 24 -12 -22 -44 -18 -50 5 -5 21 -22 27 -31 11z"/>
<path d="M5029 9428 c-11 -57 -56 -405 -53 -410 3 -4 15 -6 27 -4 17 2 24 13
31 49 9 43 12 47 38 47 24 0 28 -4 28 -29 0 -47 10 -61 42 -61 23 0 28 4 24
18 -2 9 -19 101 -38 205 l-33 187 -32 0 c-18 0 -33 -1 -34 -2z m49 -205 c8
-59 7 -63 -11 -63 -18 0 -19 5 -14 58 4 31 7 64 7 72 2 25 9 -1 18 -67z"/>
<path d="M5272 9272 c-12 -173 -16 -189 -40 -196 -10 -4 -17 -16 -17 -31 0
-19 5 -25 23 -25 61 0 79 36 88 179 3 53 8 105 9 116 2 11 4 28 4 38 1 10 9
17 21 17 19 0 20 -7 20 -175 0 -133 3 -175 13 -176 6 0 20 -2 30 -4 15 -3 17
9 18 143 1 81 2 174 3 207 l1 60 -81 3 -81 3 -11 -159z"/>
<path d="M5554 9419 c-10 -16 -10 -25 -19 -231 l-7 -178 57 0 c31 0 65 5 76
10 29 16 49 64 49 120 0 44 -5 56 -29 81 -18 17 -40 29 -56 29 l-27 0 7 85 c5
57 4 85 -3 85 -6 0 -17 3 -25 6 -8 3 -18 0 -23 -7z m88 -243 c14 -20 8 -84 -8
-100 -32 -32 -45 -20 -40 37 2 28 5 60 5 69 1 19 29 14 43 -6z"/>
<path d="M4725 9313 c3 -60 8 -153 11 -209 l6 -100 30 4 30 5 -4 88 -4 89 27
0 c36 0 76 34 84 71 10 45 -3 117 -26 140 -15 15 -33 19 -89 19 l-71 0 6 -107z
m109 41 c16 -16 21 -59 10 -88 -3 -9 -17 -16 -30 -16 -22 0 -24 4 -24 53 0 69
12 83 44 51z"/>
<path d="M4585 9398 c-4 -13 -14 -152 -15 -218 -1 -23 -10 1 -25 70 -14 58
-27 115 -30 128 -4 17 -13 22 -36 22 -24 0 -29 -3 -25 -17 18 -57 96 -365 96
-378 0 -8 -13 -21 -29 -30 -38 -19 -33 -55 8 -55 60 1 69 24 91 246 25 255 26
244 -5 244 -14 0 -27 -6 -30 -12z"/>
<path d="M5810 9393 c0 -10 -4 -65 -9 -123 -5 -58 -12 -142 -16 -187 l-6 -83
30 0 c35 0 37 6 40 95 2 38 5 73 7 77 3 4 19 8 35 8 l29 0 -6 -95 -7 -95 32 0
c29 0 31 2 32 40 1 22 2 43 3 48 1 4 6 63 10 132 4 69 10 140 12 158 5 31 4
32 -30 32 l-36 0 -1 -70 c-2 -104 -2 -105 -43 -94 l-27 6 7 84 6 84 -31 0
c-23 0 -31 -5 -31 -17z"/>
<path d="M4263 9383 c-29 -4 -33 -8 -33 -35 0 -27 3 -30 25 -26 22 5 25 1 29
-36 7 -54 14 -116 21 -201 9 -100 13 -115 33 -115 41 1 41 8 23 188 -18 180
-18 179 22 173 4 0 7 13 7 29 0 29 -1 30 -47 28 -27 0 -63 -3 -80 -5z"/>
<path d="M6099 9378 c0 -7 -2 -20 -3 -28 -11 -57 -39 -361 -34 -365 3 -4 30
-9 60 -12 47 -5 58 -2 82 19 31 26 49 92 39 146 -6 37 -45 72 -80 72 -19 0
-23 4 -19 23 3 12 8 52 11 90 l6 67 -30 0 c-18 0 -31 -5 -32 -12z m76 -235
c34 -34 0 -132 -41 -116 -8 3 -12 15 -9 31 2 15 7 44 10 65 7 41 15 45 40 20z"/>
<path d="M6286 9203 c-10 -93 -20 -184 -23 -204 -5 -33 -3 -37 22 -43 15 -4
29 -5 31 -3 4 4 10 47 30 227 3 30 9 83 13 117 7 57 6 62 -13 67 -12 3 -26 6
-32 6 -7 0 -17 -63 -28 -167z"/>
<path d="M4038 9293 c-3 -38 -6 -122 -7 -188 -1 -66 -4 -130 -8 -142 -4 -20
-1 -23 25 -23 25 0 30 5 35 29 4 16 4 38 2 49 -3 15 3 21 25 24 26 4 29 1 41
-39 10 -38 15 -43 41 -43 24 0 29 4 25 18 -2 9 -28 99 -57 200 l-53 182 -32 0
-33 0 -4 -67z m72 -131 c9 -39 9 -57 1 -65 -18 -18 -26 2 -26 74 -1 75 6 73
25 -9z"/>
<path d="M6466 9338 c-2 -7 -17 -98 -31 -202 -23 -158 -25 -190 -14 -197 8 -5
17 -9 20 -9 4 0 33 52 65 115 32 63 59 113 60 112 2 -1 -4 -47 -11 -102 -20
-135 -20 -135 10 -135 14 0 25 4 25 9 0 5 11 86 25 181 30 209 31 220 7 220
-14 0 -35 -30 -75 -107 -61 -116 -64 -115 -43 22 8 50 13 91 12 91 0 1 -11 5
-24 8 -14 5 -24 3 -26 -6z"/>
<path d="M3857 9332 c-28 -3 -28 -4 -20 -50 4 -26 8 -65 8 -87 0 -36 -3 -40
-26 -43 -26 -3 -27 -1 -39 77 -12 80 -13 81 -41 81 -36 0 -35 9 -4 -199 32
-212 32 -211 53 -211 41 1 44 12 29 101 -8 46 -14 85 -13 86 1 2 16 5 32 9
l30 6 13 -91 c12 -86 14 -91 37 -91 14 0 27 7 31 16 5 15 -41 339 -55 379 -5
15 -14 19 -35 17z"/>
<path d="M6840 9036 c0 -20 6 -24 42 -29 48 -7 58 -3 58 22 0 13 -10 21 -31
25 -57 11 -69 8 -69 -18z"/>
<path d="M3462 9036 c-24 -6 -43 -14 -43 -18 1 -5 1 -15 1 -24 0 -13 7 -15 43
-9 52 9 63 18 51 43 -8 17 -14 17 -52 8z"/>
<path d="M7365 8817 c-71 -24 -118 -54 -188 -117 -221 -203 -429 -687 -602
-1403 -117 -483 -253 -1274 -241 -1404 19 -219 253 -337 417 -210 79 60 96
107 134 364 40 275 86 539 126 727 16 77 29 141 29 143 0 8 79 -11 227 -53 83
-24 159 -44 167 -44 10 0 16 -9 16 -25 0 -62 -66 -586 -105 -835 -23 -149 -20
-214 13 -285 50 -105 131 -158 242 -158 75 -1 126 21 176 75 69 73 77 104 144
596 108 793 132 1531 64 1962 -54 345 -166 554 -345 646 -45 23 -69 28 -144
31 -56 2 -105 -2 -130 -10z m95 -769 c18 -127 29 -306 30 -486 0 -151 -1 -163
-17 -158 -18 5 -271 76 -285 79 -7 2 79 269 122 377 35 89 123 270 130 270 4
0 13 -37 20 -82z"/>
<path d="M5130 8666 c-214 -58 -368 -253 -470 -598 -79 -266 -142 -686 -159
-1070 -8 -165 -16 -229 -40 -342 -17 -77 -31 -157 -31 -179 0 -32 -8 -48 -52
-98 -139 -157 -197 -330 -178 -526 17 -168 109 -263 254 -263 155 0 260 113
256 274 -3 109 -2 113 33 152 69 80 192 132 367 154 191 25 408 -18 485 -94
21 -21 25 -34 25 -87 0 -92 17 -137 75 -194 123 -123 324 -94 402 58 34 68 44
210 20 304 -34 130 -112 250 -213 328 l-45 33 -4 209 c-4 189 -7 252 -20 438
-2 33 -7 110 -10 170 -4 61 -8 126 -10 145 -2 19 -7 138 -10 265 -3 126 -10
277 -16 335 -14 139 -54 329 -77 360 -10 14 -50 51 -88 83 -153 130 -343 185
-494 143z m150 -519 c13 -10 15 -47 15 -237 0 -231 4 -329 29 -745 8 -132 16
-293 18 -358 l3 -117 -150 -4 c-82 -2 -163 -7 -178 -11 l-28 -7 5 58 c3 33 8
113 11 179 26 529 118 1037 218 1208 30 50 34 53 57 34z"/>
<path d="M3320 8634 c-310 -27 -486 -46 -555 -60 -38 -8 -119 -17 -180 -20
-137 -7 -209 -30 -268 -88 -55 -53 -80 -107 -85 -181 -6 -86 37 -450 123
-1050 92 -651 113 -807 130 -1010 3 -38 10 -110 14 -160 5 -49 9 -161 10 -247
3 -279 20 -356 93 -424 43 -41 87 -63 140 -70 72 -9 961 132 1021 162 46 23
95 72 120 119 27 53 29 164 3 215 -46 88 -113 138 -200 147 -24 3 -171 -17
-350 -47 -169 -28 -310 -50 -311 -48 -2 2 -6 48 -10 103 -9 156 -36 447 -54
592 l-16 132 45 10 c81 17 202 30 420 46 245 17 385 38 444 64 192 85 200 364
12 456 -64 31 -104 33 -246 12 -58 -9 -186 -21 -285 -27 -99 -6 -243 -20 -319
-31 -77 -10 -141 -18 -142 -16 -10 10 -117 825 -110 836 12 19 199 44 486 66
280 21 347 31 406 60 180 88 174 365 -10 451 -59 27 -90 28 -326 8z"/>
<path d="M5980 5266 c-63 -16 -90 -44 -90 -92 0 -62 56 -94 126 -75 92 26 166
3 201 -61 13 -24 18 -55 18 -109 -1 -68 -5 -85 -38 -152 -21 -41 -51 -87 -67
-100 -28 -24 -34 -25 -142 -22 -62 2 -120 -1 -129 -5 -26 -14 -44 -67 -32 -93
9 -20 23 -24 119 -35 133 -16 182 -37 213 -93 79 -139 -87 -479 -233 -479 -25
0 -42 13 -91 65 -68 73 -100 82 -149 44 -41 -32 -36 -84 14 -147 97 -123 207
-159 331 -109 74 31 132 79 185 153 93 130 140 276 131 412 -3 59 -11 87 -40
144 l-37 71 29 32 c37 42 76 125 91 196 18 81 9 232 -17 290 -63 141 -222 208
-393 165z"/>
<path d="M4330 5248 c-259 -30 -516 -127 -550 -207 -15 -38 -9 -67 147 -611
58 -201 126 -454 153 -563 30 -123 55 -206 67 -219 16 -18 27 -20 86 -15 177
12 339 172 398 393 25 94 30 260 10 344 -66 274 -283 367 -514 220 -26 -16
-51 -30 -56 -30 -5 0 -15 26 -24 58 -8 31 -33 124 -56 206 -22 82 -39 151 -38
152 24 24 300 96 422 110 75 8 105 32 105 84 0 25 -7 43 -22 57 -30 27 -51 30
-128 21z m86 -793 c85 -90 94 -308 20 -470 -27 -59 -88 -130 -135 -158 -36
-21 -31 -32 -66 117 -14 61 -46 181 -70 268 -25 87 -45 160 -45 161 0 7 103
80 137 97 21 11 58 19 82 20 37 0 48 -5 77 -35z"/>
<path d="M5155 5230 c-33 -5 -70 -6 -82 -3 -29 7 -86 -13 -109 -38 -15 -16
-18 -35 -16 -104 2 -46 5 -94 8 -107 4 -13 8 -265 11 -561 5 -503 7 -539 24
-561 24 -31 92 -48 145 -36 60 14 137 16 246 6 96 -8 97 -8 122 17 47 47 25
129 -37 141 -52 11 -208 26 -265 26 l-62 0 0 255 0 255 28 12 c15 6 73 12 130
12 91 1 105 3 118 21 37 51 24 107 -30 134 -31 14 -159 19 -216 8 l-35 -7 -3
102 c-1 57 -5 135 -8 174 -5 63 -3 72 13 79 10 5 89 9 176 9 154 1 159 2 178
25 35 42 21 99 -30 126 -36 18 -221 27 -306 15z"/>
<path d="M2842 5019 c-299 -50 -549 -336 -553 -634 -3 -144 22 -246 85 -359
121 -213 311 -329 561 -341 121 -5 219 15 325 66 70 34 101 58 172 130 73 74
95 105 132 181 52 109 66 169 66 284 0 267 -138 493 -371 608 -141 70 -269 89
-417 65z m299 -99 c159 -48 310 -194 375 -367 45 -117 43 -289 -3 -405 l-15
-38 -97 51 c-53 29 -97 53 -99 54 -2 1 -4 29 -6 61 -4 84 -25 144 -53 157 -20
9 -22 15 -17 43 8 44 -23 181 -43 193 -18 9 -81 -2 -122 -23 -27 -14 -27 -14
-44 33 -18 53 -71 111 -134 148 -62 36 -82 29 -117 -41 -33 -64 -47 -176 -27
-214 9 -17 7 -21 -11 -25 -15 -4 -60 14 -145 59 -110 58 -122 68 -111 82 87
114 171 180 283 221 114 42 265 46 386 11z m-254 -196 c62 -47 77 -114 44
-197 l-11 -28 -31 18 c-45 26 -79 80 -79 126 0 38 23 107 36 107 4 0 22 -11
41 -26z m-372 -178 c71 -39 81 -48 86 -78 8 -49 46 -129 76 -160 23 -24 24
-28 10 -34 -51 -19 36 -213 114 -254 35 -19 117 -29 168 -21 l50 8 23 -71 c19
-60 27 -72 47 -74 44 -7 52 20 30 96 -10 37 -19 68 -19 69 0 2 26 16 58 32 31
16 68 41 81 55 l24 25 86 -46 c47 -25 90 -50 95 -54 22 -19 -89 -136 -181
-192 -90 -55 -178 -77 -302 -78 -159 -1 -258 32 -369 122 -96 79 -183 215
-211 334 -19 78 -15 192 9 284 12 45 27 81 34 81 6 0 47 -20 91 -44z m625 -28
c0 -79 -22 -117 -81 -145 -55 -26 -64 -19 -64 52 0 39 6 61 21 82 26 35 81 73
105 73 17 0 19 -8 19 -62z m-290 -78 c28 -20 70 -85 70 -109 0 -5 -20 -13 -45
-17 -62 -9 -131 25 -162 81 -29 52 -29 63 5 68 49 9 100 0 132 -23z m361 -117
c0 -10 3 -31 5 -46 7 -44 -29 -109 -75 -135 -57 -32 -68 -29 -75 21 -10 68 15
119 79 158 38 24 65 24 66 2z m-324 -104 c58 -22 120 -106 95 -131 -16 -16
-105 -12 -139 6 -31 15 -65 61 -77 103 -6 17 -2 22 16 26 43 8 77 7 105 -4z"/>
<path d="M7128 5010 c-183 -45 -331 -157 -424 -322 -49 -85 -64 -128 -79 -227
-23 -154 -8 -264 57 -400 33 -69 56 -100 127 -170 150 -150 276 -206 466 -205
199 0 355 62 486 194 182 182 245 447 163 689 -111 332 -458 524 -796 441z
m346 -94 c187 -68 330 -213 382 -391 22 -74 24 -237 5 -315 -21 -86 -67 -172
-127 -238 -52 -58 -143 -132 -160 -132 -8 0 -94 185 -94 201 0 4 16 30 35 59
45 66 61 120 46 148 -9 18 -6 26 19 53 40 45 84 154 70 178 -5 11 -35 26 -70
37 -60 18 -61 18 -53 48 17 65 8 158 -19 219 -32 68 -45 71 -126 30 -61 -31
-125 -97 -138 -144 l-9 -31 -24 19 c-26 21 -133 244 -122 255 3 4 38 14 76 22
95 21 222 14 309 -18z m-431 -128 c38 -86 43 -107 28 -123 -15 -17 -41 -116
-41 -160 0 -34 -4 -44 -24 -53 -31 -14 -60 -98 -59 -177 0 -94 46 -166 137
-212 17 -8 33 -17 35 -19 2 -2 -6 -35 -19 -73 -20 -58 -22 -72 -11 -85 16 -19
45 -21 59 -3 6 7 20 38 32 70 l22 58 41 -8 c23 -4 68 -7 100 -7 l59 2 44 -96
c50 -107 51 -104 -36 -124 -171 -37 -343 4 -493 119 -144 111 -217 264 -217
458 0 141 44 276 121 369 38 45 158 146 174 146 6 0 28 -37 48 -82z m406 -79
c25 -73 4 -132 -64 -184 -43 -33 -51 -28 -64 40 -8 42 -7 56 10 90 18 38 71
85 95 85 7 0 17 -14 23 -31z m-212 -188 c23 -34 28 -73 17 -130 -8 -37 -20
-39 -65 -8 -69 47 -93 112 -68 186 l11 31 41 -22 c23 -13 52 -38 64 -57z m301
-77 c29 -6 28 -21 -3 -67 -31 -45 -76 -69 -127 -69 -88 1 -100 28 -42 92 48
53 84 62 172 44z m-440 -104 c47 -29 72 -76 72 -135 0 -64 -9 -78 -43 -70 -36
9 -97 78 -99 113 -3 62 8 112 25 112 6 0 27 -9 45 -20z m350 -126 c31 -9 27
-34 -14 -82 -44 -52 -92 -69 -152 -53 -48 13 -50 20 -21 68 38 62 110 87 187
67z"/>
<path d="M5169 3525 c-58 -31 -75 -144 -104 -675 -16 -301 -43 -507 -92 -700
-25 -104 -26 -107 -8 -143 19 -41 59 -67 102 -67 15 0 90 -12 167 -27 127 -24
141 -25 179 -12 76 27 107 106 65 169 -28 42 -77 68 -144 75 -27 4 -63 8 -80
11 l-31 4 14 63 c15 75 40 253 49 361 l7 78 81 -7 c142 -11 154 -10 183 11 56
42 61 134 10 182 -28 27 -124 52 -199 52 l-58 0 0 36 c0 35 21 328 24 330 0 1
48 -9 106 -22 138 -31 256 -36 294 -11 59 39 70 128 22 180 -27 29 -32 31
-171 46 -62 7 -138 25 -202 46 -108 37 -172 43 -214 20z"/>
<path d="M4420 3509 c-71 -8 -210 -50 -259 -80 -16 -10 -40 -38 -53 -61 -39
-75 -25 -275 42 -623 41 -210 60 -335 67 -442 7 -102 25 -147 69 -163 68 -26
144 3 164 64 9 28 9 67 0 169 -7 72 -13 136 -13 141 -1 4 28 19 65 31 108 38
189 86 258 155 205 205 214 524 20 703 -92 84 -215 120 -360 106z m164 -257
c16 -9 43 -34 60 -55 29 -36 31 -44 31 -120 0 -72 -4 -88 -30 -136 -45 -82
-125 -142 -226 -171 -27 -8 -28 -7 -38 38 -24 114 -43 244 -50 334 l-6 98 45
14 c84 27 165 26 214 -2z"/>
<path d="M3340 3349 c-126 -19 -308 -82 -450 -157 -145 -76 -164 -96 -162
-165 2 -49 16 -74 55 -97 45 -28 82 -25 145 11 30 17 56 28 58 26 3 -2 11 -46
20 -98 23 -143 84 -385 189 -751 113 -394 110 -388 224 -388 37 0 90 7 117 15
27 9 81 22 121 30 181 35 307 162 358 360 19 76 19 221 0 304 -22 93 -70 184
-126 238 l-47 46 40 51 c63 79 88 144 88 229 0 132 -71 236 -201 297 -118 55
-274 73 -429 49z m316 -260 c26 -13 56 -37 68 -52 l21 -28 -25 -46 c-40 -76
-134 -141 -280 -193 -41 -15 -90 -34 -107 -41 -28 -11 -35 -11 -48 1 -12 13
-65 278 -65 329 0 14 18 22 88 39 123 30 280 26 348 -9z m1 -540 c79 -30 135
-134 135 -254 1 -88 -14 -140 -55 -201 -41 -62 -91 -87 -167 -87 -98 1 -90
-11 -159 229 -54 187 -61 218 -49 235 15 22 186 86 235 88 17 0 44 -4 60 -10z"/>
<path d="M6346 3288 c-50 -14 -171 -128 -230 -217 -52 -79 -115 -203 -181
-356 -100 -232 -167 -347 -223 -385 -45 -31 -94 -92 -131 -164 -36 -67 -43
-155 -15 -194 38 -55 132 -69 181 -28 28 23 63 86 97 170 l16 39 98 -7 c111
-7 191 -24 247 -52 58 -29 63 -44 36 -103 -33 -68 -25 -125 20 -163 25 -21 44
-28 75 -28 57 0 93 32 129 112 37 82 39 181 5 248 -28 55 -27 60 55 311 127
390 157 556 120 672 -19 61 -55 106 -107 133 -40 20 -140 27 -192 12z m72
-304 c-4 -37 -17 -101 -28 -143 -20 -73 -149 -479 -156 -492 -2 -4 -30 -1 -61
6 -32 7 -75 16 -96 20 -28 4 -36 9 -29 18 6 7 50 103 99 214 49 110 109 234
132 275 40 70 121 168 139 168 5 0 5 -30 0 -66z"/>
<path d="M7376 2989 c-86 -20 -186 -79 -268 -157 -100 -96 -185 -208 -332
-439 -63 -100 -140 -218 -171 -264 -50 -73 -56 -87 -51 -118 8 -49 36 -84 81
-99 78 -26 120 8 233 183 36 55 67 102 69 104 2 3 28 -8 59 -25 37 -19 53 -34
50 -44 -2 -8 -29 -73 -60 -145 -59 -139 -63 -173 -29 -220 10 -13 30 -29 46
-36 34 -15 103 -6 127 16 10 9 39 66 64 125 25 59 105 229 177 377 250 510
284 606 243 684 -30 58 -132 83 -238 58z m-134 -464 c-45 -91 -84 -165 -88
-165 -5 0 -67 34 -83 46 -2 2 24 41 58 88 65 89 179 212 188 202 3 -3 -31 -80
-75 -171z"/>
<path d="M2426 2250 c-161 -102 -208 -290 -111 -437 60 -90 199 -150 287 -123
129 38 242 304 197 465 -24 87 -100 125 -253 125 -63 0 -78 -4 -120 -30z"/>
<path d="M7644 2230 c-117 -66 -189 -219 -154 -324 38 -117 194 -181 311 -129
97 44 180 165 181 265 1 78 -27 124 -97 161 -126 67 -164 72 -241 27z"/>
<path d="M4709 2085 c-3 -2 -50 -16 -106 -30 -102 -25 -222 -34 -295 -20 -106
20 -182 -80 -133 -175 29 -56 62 -65 235 -65 157 0 166 1 340 52 73 21 120 67
120 117 0 74 -51 126 -123 126 -18 0 -36 -2 -38 -5z"/>
<path d="M5925 1333 c-120 -14 -115 -12 -115 -45 0 -27 2 -30 25 -24 14 4 25
5 26 4 1 -2 8 -79 17 -173 l17 -170 33 -3 c33 -3 33 -3 28 35 -14 107 -28 294
-23 307 4 9 16 16 28 16 15 0 19 4 15 16 -3 9 -6 22 -6 30 0 8 -3 13 -7 13 -5
-1 -21 -4 -38 -6z"/>
<path d="M4236 1308 c-3 -13 -10 -88 -16 -168 -6 -80 -13 -162 -16 -182 -6
-37 -5 -38 25 -38 17 0 31 3 32 8 0 4 2 14 3 22 2 8 9 84 16 168 l13 152 35 0
35 0 -7 -72 c-4 -40 -9 -98 -11 -128 -3 -30 -8 -78 -11 -106 -5 -49 -4 -52 21
-56 14 -3 28 -1 32 5 9 15 42 391 34 398 -3 4 -45 10 -93 14 -86 6 -87 6 -92
-17z"/>
<path d="M5709 1312 c-11 -2 -22 -28 -34 -83 -10 -44 -22 -82 -27 -85 -4 -3
-8 19 -8 49 0 30 -3 69 -6 86 -6 26 -11 31 -36 31 l-30 0 6 -62 c3 -35 8 -115
11 -178 9 -174 10 -179 46 -178 l30 1 -6 96 c-7 110 -1 108 42 -11 25 -70 30
-78 54 -78 14 0 28 3 31 6 3 3 -12 52 -34 109 l-41 104 25 100 c27 106 27 104
-23 93z"/>
<path d="M4509 1274 c-1 -22 -3 -48 -4 -59 -1 -11 -6 -86 -10 -167 -6 -121 -5
-148 6 -149 8 0 22 -2 32 -4 13 -3 17 4 18 33 1 49 9 124 14 140 3 8 13 11 25
7 21 -7 58 10 77 34 33 43 23 160 -16 180 -9 5 -45 13 -79 17 l-62 7 -1 -39z
m115 -56 c15 -42 -3 -82 -37 -86 -26 -3 -27 -1 -23 25 2 15 5 43 5 61 1 29 4
33 23 30 14 -2 26 -14 32 -30z"/>
<path d="M4800 1286 c-37 -21 -48 -68 -49 -209 -1 -144 9 -178 58 -195 40 -14
80 -2 105 32 19 24 21 44 24 177 l3 149 -30 30 c-33 33 -70 38 -111 16z m69
-60 c14 -16 14 -227 0 -263 -10 -29 -45 -30 -54 -3 -9 29 -4 209 7 248 10 34
28 41 47 18z"/>
<path d="M5324 1294 c-8 -3 3 -67 32 -197 24 -105 41 -200 38 -209 -3 -10 -16
-21 -30 -24 -17 -4 -24 -13 -24 -30 0 -20 5 -24 30 -24 30 0 80 37 80 58 0 6
11 92 25 193 32 234 32 239 1 239 -31 0 -33 -7 -42 -134 -4 -58 -11 -106 -15
-106 -5 0 -9 12 -9 28 -1 47 -38 195 -52 203 -14 9 -17 10 -34 3z"/>
<path d="M5080 1283 c-1 -59 -14 -220 -21 -262 -5 -30 -18 -64 -29 -76 -26
-27 -30 -155 -5 -155 18 0 35 31 35 64 0 26 1 26 80 26 l80 0 0 -40 c0 -33 3
-40 20 -40 28 0 34 39 21 132 -1 4 -8 5 -16 2 -12 -5 -15 20 -17 173 l-3 178
-72 3 c-40 2 -73 -1 -73 -5z m90 -197 c0 -157 0 -156 -61 -156 -29 0 -29 1
-14 23 12 18 36 147 33 177 0 3 0 26 1 53 1 40 4 47 21 47 19 0 20 -7 20 -144z"/>
<path d="M3888 1127 c-4 -23 -1 -26 40 -32 32 -5 47 -3 53 7 14 22 10 38 -10
38 -10 0 -32 3 -48 6 -26 5 -31 3 -35 -19z"/>
<path d="M6223 1143 c-24 -5 -27 -11 -17 -36 4 -11 16 -14 47 -10 50 6 60 14
51 36 -6 17 -31 20 -81 10z"/>
</g>
</svg>
